<svg width="29" height="29" viewBox="0 0 29 29" fill="none" xmlns="http://www.w3.org/2000/svg">
    <path d="M14.3552 0.422363C6.5014 0.422363 0.132812 6.95092 0.132812 15.0047C0.132812 21.4475 4.20795 26.9136 9.85892 28.8417C10.5697 28.9767 10.8307 28.5254 10.8307 28.1403C10.8307 27.7925 10.8175 26.6438 10.8113 25.4253C6.85468 26.3074 6.01977 23.7048 6.01977 23.7048C5.37281 22.0193 4.44064 21.5711 4.44064 21.5711C3.15024 20.6661 4.5379 20.6847 4.5379 20.6847C5.96607 20.7875 6.71808 22.1874 6.71808 22.1874C7.98656 24.4167 10.0452 23.7722 10.8568 23.3996C10.9844 22.4571 11.353 21.8138 11.7598 21.4497C8.60079 21.0809 5.28001 19.8306 5.28001 14.243C5.28001 12.651 5.8356 11.3501 6.7454 10.3289C6.59773 9.96166 6.11092 8.47851 6.88317 6.4699C6.88317 6.4699 8.07747 6.07799 10.7953 7.96464C11.9298 7.64155 13.1465 7.47952 14.3552 7.47396C15.5638 7.47952 16.7814 7.64155 17.918 7.96464C20.6326 6.07799 21.8253 6.4699 21.8253 6.4699C22.5994 8.47851 22.1123 9.96166 21.9647 10.3289C22.8766 11.3501 23.4284 12.651 23.4284 14.243C23.4284 19.8438 20.1013 21.0771 16.9343 21.4381C17.4444 21.8906 17.899 22.778 17.899 24.1385C17.899 26.0896 17.8825 27.66 17.8825 28.1403C17.8825 28.5283 18.1385 28.983 18.8594 28.8398C24.5073 26.9094 28.5773 21.4453 28.5773 15.0047C28.5773 6.95092 22.2096 0.422363 14.3552 0.422363Z" fill="#161514"/>
    <path d="M5.56183 21.2595C5.53056 21.3312 5.4196 21.3527 5.31852 21.3035C5.21556 21.2564 5.15773 21.1586 5.19111 21.0866C5.22167 21.0127 5.33286 20.9922 5.43559 21.0417C5.53879 21.0888 5.59756 21.1875 5.56183 21.2595Z" fill="#161514"/>
    <path d="M6.13683 21.9117C6.06912 21.9756 5.93677 21.9459 5.84698 21.845C5.75412 21.7444 5.73672 21.6098 5.80537 21.545C5.87518 21.4811 6.00354 21.511 6.09663 21.6117C6.18948 21.7135 6.20758 21.8472 6.13683 21.9117Z" fill="#161514"/>
    <path d="M6.69655 22.7433C6.60957 22.8047 6.46735 22.7471 6.37943 22.6187C6.29245 22.4903 6.29245 22.3364 6.38131 22.2747C6.46946 22.213 6.60957 22.2685 6.69866 22.3959C6.78541 22.5264 6.78541 22.6804 6.69655 22.7433Z" fill="#161514"/>
    <path d="M7.46337 23.5467C7.38556 23.6339 7.21983 23.6105 7.09853 23.4914C6.97441 23.375 6.93985 23.2098 7.0179 23.1225C7.09665 23.035 7.26332 23.0596 7.38556 23.1777C7.50874 23.2939 7.54635 23.4603 7.46337 23.5467Z" fill="#161514"/>
    <path d="M8.52122 24.0131C8.4869 24.1262 8.32728 24.1776 8.16649 24.1296C8.00593 24.0801 7.90085 23.9476 7.93329 23.8333C7.96667 23.7195 8.127 23.666 8.28897 23.7174C8.44929 23.7666 8.5546 23.8981 8.52122 24.0131Z" fill="#161514"/>
    <path d="M9.68298 24.0997C9.68698 24.2188 9.55063 24.3175 9.38184 24.3197C9.21212 24.3235 9.07483 24.2271 9.07295 24.11C9.07295 23.9897 9.20624 23.8919 9.37597 23.889C9.54475 23.8857 9.68298 23.9813 9.68298 24.0997Z" fill="#161514"/>
    <path d="M10.7641 23.9125C10.7843 24.0287 10.667 24.148 10.4994 24.1798C10.3346 24.2104 10.1821 24.1387 10.1611 24.0234C10.1407 23.9043 10.2601 23.785 10.4247 23.7542C10.5925 23.7245 10.7427 23.7944 10.7641 23.9125Z" fill="#161514"/>
</svg>
