<svg width="24" height="24" viewBox="0 0 24 24" fill="none" xmlns="http://www.w3.org/2000/svg">
    <g clip-path="url(#clip0_1206_398)">
        <path d="M22.4235 9.82105C22.6956 9.01293 22.7897 8.15684 22.6995 7.30999C22.6094 6.46314 22.337 5.64501 21.9007 4.91026C21.2539 3.79969 20.2663 2.92042 19.0802 2.39923C17.8941 1.87803 16.5709 1.74183 15.3013 2.01027C14.58 1.21883 13.6603 0.628545 12.6345 0.298687C11.6087 -0.0311717 10.513 -0.0889848 9.45744 0.131054C8.40186 0.351092 7.42355 0.841235 6.62078 1.55225C5.81801 2.26327 5.21904 3.17014 4.88402 4.18176C4.03819 4.35285 3.23913 4.70005 2.54023 5.20015C1.84133 5.70026 1.25869 6.34175 0.831252 7.08176C0.177403 8.19048 -0.102048 9.47558 0.0333007 10.7513C0.16865 12.027 0.711785 13.2272 1.58418 14.1783C1.31114 14.9861 1.21611 15.842 1.30544 16.6889C1.39478 17.5358 1.66643 18.354 2.10222 19.089C2.74986 20.2 3.73837 21.0795 4.92529 21.6007C6.11221 22.1219 7.43624 22.2579 8.70656 21.9891C9.27961 22.6257 9.98374 23.1343 10.7719 23.481C11.5601 23.8278 12.4142 24.0047 13.2773 23.9999C14.5786 24.0011 15.8466 23.5943 16.8983 22.8384C17.9501 22.0824 18.731 21.0164 19.1286 19.7941C19.9743 19.6227 20.7732 19.2754 21.4721 18.7753C22.171 18.2752 22.7537 17.6339 23.1813 16.894C23.8275 15.7869 24.1021 14.5067 23.966 13.2363C23.8299 11.9659 23.29 10.7705 22.4235 9.82105ZM13.2773 22.4291C12.2115 22.4308 11.1792 22.0623 10.3612 21.3883L10.5051 21.3079L15.3492 18.5497C15.4698 18.48 15.5699 18.3805 15.6397 18.261C15.7095 18.1416 15.7466 18.0063 15.7473 17.8684V11.1315L17.7952 12.3001C17.8053 12.3052 17.814 12.3125 17.8207 12.3216C17.8274 12.3306 17.8319 12.3411 17.8337 12.3521V17.9347C17.8311 19.1259 17.3502 20.2677 16.4963 21.11C15.6423 21.9523 14.4849 22.4266 13.2773 22.4291ZM3.48349 18.3037C2.949 17.3933 2.75709 16.3262 2.94153 15.29L3.08548 15.3752L7.93437 18.1334C8.05435 18.2029 8.19093 18.2395 8.33004 18.2395C8.46915 18.2395 8.60574 18.2029 8.72572 18.1334L14.649 14.7649V17.0973C14.6484 17.1094 14.6451 17.1212 14.6393 17.1319C14.6335 17.1425 14.6253 17.1517 14.6153 17.1588L9.70888 19.9501C8.66178 20.5451 7.4181 20.7059 6.2509 20.3973C5.0837 20.0886 4.08839 19.3356 3.48349 18.3037ZM2.20776 7.89555C2.74595 6.97932 3.59544 6.28049 4.60584 5.92276V11.5999C4.60402 11.7371 4.63954 11.8722 4.70871 11.9912C4.77788 12.1102 4.87816 12.2087 4.99908 12.2764L10.8936 15.6307L8.84565 16.7992C8.83457 16.805 8.82221 16.8081 8.80966 16.8081C8.79711 16.8081 8.78475 16.805 8.77367 16.7992L3.87683 14.0127C2.8317 13.4152 2.06922 12.4334 1.75639 11.2824C1.44356 10.1315 1.60586 8.90512 2.20776 7.87195V7.89555ZM19.0327 11.7513L13.119 8.36395L15.1622 7.19995C15.1733 7.19415 15.1856 7.19111 15.1982 7.19111C15.2107 7.19111 15.2231 7.19415 15.2342 7.19995L20.131 9.99125C20.8797 10.4174 21.4901 11.0449 21.8909 11.8003C22.2916 12.5558 22.4663 13.4082 22.3943 14.2579C22.3224 15.1077 22.007 15.9197 21.4848 16.5992C20.9626 17.2787 20.2552 17.7976 19.4452 18.0954V12.4182C19.4409 12.2813 19.4007 12.1478 19.3283 12.0309C19.256 11.914 19.1542 11.8177 19.0327 11.7513ZM21.0711 8.72825L20.9271 8.64305L16.0879 5.86126C15.9671 5.79138 15.8297 5.75454 15.6897 5.75454C15.5498 5.75454 15.4123 5.79138 15.2916 5.86126L9.37332 9.22965V6.89736C9.37206 6.8855 9.37407 6.87352 9.37914 6.8627C9.3842 6.85187 9.39214 6.8426 9.40211 6.83586L14.2989 4.04926C15.0495 3.62278 15.9076 3.4159 16.7729 3.45282C17.6382 3.48974 18.475 3.76893 19.1854 4.25775C19.8958 4.74656 20.4503 5.42478 20.7843 6.21309C21.1182 7.0014 21.2178 7.86721 21.0712 8.70925L21.0711 8.72825ZM8.25563 12.8629L6.20781 11.6991C6.19756 11.6931 6.1888 11.6848 6.18214 11.675C6.17548 11.6652 6.17109 11.6541 6.16928 11.6424V6.07416C6.17041 5.21993 6.41805 4.38368 6.88324 3.66316C7.34843 2.94265 8.01195 2.36766 8.79622 2.00541C9.58049 1.64316 10.4531 1.50863 11.312 1.61755C12.171 1.72647 12.9807 2.07433 13.6466 2.62047L13.5026 2.70097L8.65861 5.45896C8.53804 5.52871 8.43795 5.62819 8.36815 5.74764C8.29835 5.86709 8.26125 6.00239 8.2605 6.14026L8.25563 12.8629ZM9.36835 10.4975L12.0062 8.99775L14.649 10.4975V13.4969L12.0158 14.9966L9.37322 13.4969L9.36835 10.4975Z" fill="#70A597"/>
    </g>
    <defs>
        <clipPath id="clip0_1206_398">
            <rect width="24" height="24" fill="white"/>
        </clipPath>
    </defs>
</svg>
