<svg width="75" height="80" viewBox="0 0 75 80" fill="none" xmlns="http://www.w3.org/2000/svg">
    <path d="M35.127 0.561277C34.0485 0.697684 32.319 1.17511 31.352 1.58432C30.8127 1.80598 30.3292 1.99354 30.292 1.99354C29.9945 1.99354 27.9303 3.39171 26.8146 4.34655C23.709 7.04058 22.3887 9.85396 22.3887 13.8438C22.3887 15.5319 22.5188 16.4185 23.0581 18.8738C23.4301 20.5107 23.802 22.1646 23.8764 22.5397C24.0809 23.4775 24.3599 24.7052 24.7132 26.1204C24.8806 26.7683 25.0851 27.6209 25.1781 27.996C25.2525 28.3711 25.457 29.2578 25.6244 29.9568C25.7918 30.6559 26.0707 31.9688 26.2381 32.8555C26.3868 33.7421 26.5542 34.5606 26.5914 34.6799C26.61 34.7822 28.0977 35.5154 29.8829 36.3168C33.2488 37.8343 34.5877 38.5334 36.373 39.7781C37.3214 40.426 37.4515 40.4772 37.7677 40.2555C38.6975 39.5735 42.9188 37.408 45.7826 36.1463L48.9812 34.714V33.9126C48.9812 33.2647 49.725 29.1725 50.4688 25.7794C50.5618 25.4043 50.7106 24.6711 50.8222 24.1596C50.9151 23.648 51.1383 22.6762 51.3057 22.0282C51.4544 21.3632 51.6776 20.4425 51.752 19.9821C51.9193 19.1807 52.0123 18.7204 52.533 16.589C52.9049 15.1568 52.7934 12.1388 52.3471 10.6042C50.9151 5.79587 47.2517 2.48802 41.5427 0.885242C40.5571 0.595379 36.3916 0.390769 35.127 0.561277ZM43.7928 19.4024C44.6854 19.6752 45.3921 20.3402 45.7082 21.1927C45.95 21.8577 45.95 22.0282 45.6896 22.7273C45.2991 23.8015 44.2391 24.5006 43.0118 24.5006C42.2308 24.5006 41.989 24.4153 41.3753 23.9038C39.7761 22.5738 40.055 20.4425 41.9518 19.5729C42.8816 19.1637 42.956 19.1466 43.7928 19.4024ZM33.7881 20.0333C34.5134 20.6642 34.8481 21.295 34.8481 22.0282C34.8481 22.7273 34.5877 23.2218 33.8439 23.8527C32.3934 25.0974 29.9945 24.4153 29.4924 22.625C29.1391 21.3291 30.0689 19.8287 31.4078 19.5047C32.1516 19.3171 33.2674 19.5729 33.7881 20.0333Z" fill="url(#paint0_linear_269_1509)"/>
    <path d="M35.127 0.561277C34.0485 0.697684 32.319 1.17511 31.352 1.58432C30.8127 1.80598 30.3292 1.99354 30.292 1.99354C29.9945 1.99354 27.9303 3.39171 26.8146 4.34655C23.709 7.04058 22.3887 9.85396 22.3887 13.8438C22.3887 15.5319 22.5188 16.4185 23.0581 18.8738C23.4301 20.5107 23.802 22.1646 23.8764 22.5397C24.0809 23.4775 24.3599 24.7052 24.7132 26.1204C24.8806 26.7683 25.0851 27.6209 25.1781 27.996C25.2525 28.3711 25.457 29.2578 25.6244 29.9568C25.7918 30.6559 26.0707 31.9688 26.2381 32.8555C26.3868 33.7421 26.5542 34.5606 26.5914 34.6799C26.61 34.7822 28.0977 35.5154 29.8829 36.3168C33.2488 37.8343 34.5877 38.5334 36.373 39.7781C37.3214 40.426 37.4515 40.4772 37.7677 40.2555C38.6975 39.5735 42.9188 37.408 45.7826 36.1463L48.9812 34.714V33.9126C48.9812 33.2647 49.725 29.1725 50.4688 25.7794C50.5618 25.4043 50.7106 24.6711 50.8222 24.1596C50.9151 23.648 51.1383 22.6762 51.3057 22.0282C51.4544 21.3632 51.6776 20.4425 51.752 19.9821C51.9193 19.1807 52.0123 18.7204 52.533 16.589C52.9049 15.1568 52.7934 12.1388 52.3471 10.6042C50.9151 5.79587 47.2517 2.48802 41.5427 0.885242C40.5571 0.595379 36.3916 0.390769 35.127 0.561277ZM43.7928 19.4024C44.6854 19.6752 45.3921 20.3402 45.7082 21.1927C45.95 21.8577 45.95 22.0282 45.6896 22.7273C45.2991 23.8015 44.2391 24.5006 43.0118 24.5006C42.2308 24.5006 41.989 24.4153 41.3753 23.9038C39.7761 22.5738 40.055 20.4425 41.9518 19.5729C42.8816 19.1637 42.956 19.1466 43.7928 19.4024ZM33.7881 20.0333C34.5134 20.6642 34.8481 21.295 34.8481 22.0282C34.8481 22.7273 34.5877 23.2218 33.8439 23.8527C32.3934 25.0974 29.9945 24.4153 29.4924 22.625C29.1391 21.3291 30.0689 19.8287 31.4078 19.5047C32.1516 19.3171 33.2674 19.5729 33.7881 20.0333Z" fill="black" fill-opacity="0.2"/>
    <path d="M16.3256 19.0785C16.2326 19.1978 16.1582 21.6361 16.1582 24.5006V29.7011L18.8175 29.7523C21.0118 29.7864 21.4767 29.7523 21.5697 29.5477C21.6255 29.4113 21.3465 28.0813 20.9374 26.5979C20.082 23.4946 19.4869 21.3292 19.208 20.2379C19.0964 19.8117 18.9662 19.3342 18.9104 19.1637C18.836 18.925 18.6129 18.8739 17.6645 18.8739C16.9206 18.8739 16.4185 18.9591 16.3256 19.0785Z" fill="url(#paint1_linear_269_1509)"/>
    <path d="M56.0477 19.5559C55.6572 20.9029 54.6344 24.7734 54.3741 25.9499C54.2811 26.325 54.0765 27.2117 53.9091 27.9108C53.7418 28.6099 53.593 29.3089 53.5744 29.4453C53.5372 29.667 53.9649 29.7011 56.1965 29.7523L58.8371 29.8034V24.3472V18.9079L57.5354 18.925L56.2337 18.9421L56.0477 19.5559Z" fill="url(#paint2_linear_269_1509)"/>
    <path d="M45.5412 40.5284C43.0121 41.7049 40.8735 42.762 39.1627 43.6657L37.6378 44.4842L35.3319 43.2736C32.5239 41.8072 29.3997 40.3238 28.5815 40.051C27.8562 39.8293 27.8376 39.9146 28.2282 41.057C28.6373 42.2505 28.8418 43.0008 29.5671 45.8141C30.4411 49.1731 30.813 50.4178 30.9618 50.4178C31.1106 50.4178 35.4063 48.2694 36.801 47.4851C37.5076 47.0929 37.7308 47.0929 38.4188 47.5363C38.8837 47.8432 44.2394 50.4178 44.4068 50.4178C44.444 50.4178 44.5742 50.0598 44.6857 49.5994C44.9833 48.5423 45.2064 47.7579 45.4668 46.9224C45.5784 46.5473 45.7271 45.9676 45.8201 45.6436C46.1362 44.3648 46.7685 42.1141 47.0475 41.2616C47.5681 39.6759 47.4566 39.6247 45.5412 40.5284Z" fill="url(#paint3_linear_269_1509)"/>
    <path d="M50.505 41.6877C50.2261 42.5061 49.9099 43.5291 49.724 44.2794C49.631 44.6033 49.4264 45.3024 49.2777 45.814C49.1289 46.3255 48.7756 47.519 48.5152 48.4568C48.2549 49.3946 47.9573 50.3836 47.8644 50.6734C47.6412 51.3896 47.1391 53.1117 46.9346 53.8278C46.8602 54.1518 46.5626 55.1748 46.3023 56.0956C46.0419 56.9993 45.6142 58.4656 45.3725 59.3352C45.1307 60.1878 44.7774 61.3643 44.61 61.9269C44.1637 63.3763 44.0336 63.7855 43.6058 65.4224C43.3827 66.2237 43.1409 67.0933 43.048 67.3832C42.955 67.656 42.7318 68.4233 42.5645 69.0883C42.3971 69.7362 42.1739 70.4353 42.0996 70.6228C42.0252 70.8104 41.5975 72.3109 41.1698 73.9477C40.4259 76.7952 40.2214 77.5114 39.868 78.6026C39.6263 79.3187 39.9982 79.3358 41.4487 78.6197C42.1739 78.2786 45.1865 76.8634 48.1433 75.4823C51.1187 74.1183 55.3772 72.1063 57.6273 71.0491C61.9974 68.986 65.9398 67.1786 68.0412 66.2578C71.3141 64.8426 73.0807 63.3081 74.3081 60.8868C74.8102 59.8809 74.9032 59.4716 74.9775 58.0394C75.0705 56.1467 74.8846 55.2601 74.0291 53.6573C73.1179 51.9181 71.4629 50.52 69.0826 49.4799C68.004 49.0024 64.1918 47.2974 60.6213 45.6775C57.0323 44.0407 53.5548 42.472 52.8853 42.1821C52.2159 41.8923 51.4534 41.5172 51.1931 41.3466L50.7096 41.0568L50.505 41.6877Z" fill="url(#paint4_linear_269_1509)"/>
    <path d="M23.2067 41.7219C22.6116 41.9947 20.8635 42.762 19.3201 43.427C17.7952 44.092 15.8984 44.9275 15.1359 45.2855C14.3735 45.6436 12.4953 46.5132 10.9518 47.2123C9.42691 47.9284 7.49291 48.8151 6.65609 49.1902C3.02984 50.8441 1.57934 52.157 0.593745 54.6805C-0.707985 58.0054 0.128841 61.0575 3.12282 63.8027C4.31297 64.8769 4.94524 65.3202 6.1168 65.8317C6.93503 66.1898 8.23676 66.7695 8.9992 67.1276C13.2391 69.0714 28.5809 76.1816 31.7423 77.665C33.7879 78.6198 35.4801 79.4042 35.5173 79.4042C35.6475 79.4042 35.5917 78.8415 35.4057 78.3129C35.3127 78.0231 35.0524 77.1705 34.8478 76.4203C33.9552 73.3341 33.1928 70.7424 32.8952 69.7705C32.7279 69.2078 32.3931 68.0484 32.1514 67.2129C31.9096 66.3603 31.5749 65.2179 31.4075 64.6552C31.2402 64.0926 31.0356 63.3253 30.9426 62.9502C30.8497 62.575 30.7009 61.9953 30.5893 61.6714C30.4777 61.3474 30.2732 60.6483 30.1244 60.1368C29.9756 59.6253 29.6223 58.4658 29.3434 57.5792C29.083 56.6925 28.7855 55.6865 28.7111 55.3626C28.4322 54.2202 27.242 50.145 26.2006 46.7519C24.8617 42.404 24.8059 42.2335 24.6757 41.756C24.62 41.5514 24.5084 41.3468 24.4526 41.2957C24.3782 41.2616 23.8203 41.4491 23.2067 41.7219Z" fill="url(#paint5_linear_269_1509)"/>
    <path d="M37.1358 52.4128C36.02 52.6004 35.5551 54.4419 36.4477 55.2092C37.5821 56.181 39.4231 55.4138 39.3859 53.9815C39.3487 52.9073 38.3631 52.2082 37.1358 52.4128Z" fill="url(#paint6_linear_269_1509)"/>
    <path d="M36.5766 59.216C36.0559 59.5911 35.9629 59.7616 35.9629 60.3754C35.9629 61.3644 36.5208 61.8418 37.6737 61.8418C39.4404 61.8418 40.1284 60.3413 38.8453 59.3012C38.0271 58.6533 37.3762 58.6192 36.5766 59.216Z" fill="url(#paint7_linear_269_1509)"/>
    <path d="M36.9485 65.2521C36.5022 65.4226 35.9629 66.241 35.9629 66.7355C35.9629 66.906 36.1674 67.264 36.4092 67.5539C36.7811 67.9802 36.9857 68.0654 37.6923 68.0654C38.8267 68.0654 39.3102 67.6562 39.3102 66.6843C39.3102 66.0875 39.2172 65.8829 38.7337 65.5249C38.1386 65.0645 37.6551 64.9963 36.9485 65.2521Z" fill="url(#paint8_linear_269_1509)"/>
    <defs>
        <linearGradient id="paint0_linear_269_1509" x1="52.6507" y1="28.8142" x2="22.6215" y2="29.0187" gradientUnits="userSpaceOnUse">
            <stop stop-color="#570CD5"/>
            <stop offset="1" stop-color="#C67EFF"/>
        </linearGradient>
        <linearGradient id="paint1_linear_269_1509" x1="21.5578" y1="26.6067" x2="16.1996" y2="26.6306" gradientUnits="userSpaceOnUse">
            <stop stop-color="#570CD5"/>
            <stop offset="1" stop-color="#C67EFF"/>
        </linearGradient>
        <linearGradient id="paint2_linear_269_1509" x1="58.8187" y1="26.6447" x2="53.6125" y2="26.6672" gradientUnits="userSpaceOnUse">
            <stop stop-color="#570CD5"/>
            <stop offset="1" stop-color="#C67EFF"/>
        </linearGradient>
        <linearGradient id="paint3_linear_269_1509" x1="47.2471" y1="47.3797" x2="28.1272" y2="47.6953" gradientUnits="userSpaceOnUse">
            <stop stop-color="#570CD5"/>
            <stop offset="1" stop-color="#C67EFF"/>
        </linearGradient>
        <linearGradient id="paint4_linear_269_1509" x1="74.8761" y1="68.1053" x2="40.0704" y2="68.393" gradientUnits="userSpaceOnUse">
            <stop stop-color="#570CD5"/>
            <stop offset="1" stop-color="#C67EFF"/>
        </linearGradient>
        <linearGradient id="paint5_linear_269_1509" x1="35.4638" y1="68.3551" x2="0.273681" y2="68.649" gradientUnits="userSpaceOnUse">
            <stop stop-color="#570CD5"/>
            <stop offset="1" stop-color="#C67EFF"/>
        </linearGradient>
        <linearGradient id="paint6_linear_269_1509" x1="39.3746" y1="54.6967" x2="36.0048" y2="54.7281" gradientUnits="userSpaceOnUse">
            <stop stop-color="#570CD5"/>
            <stop offset="1" stop-color="#C67EFF"/>
        </linearGradient>
        <linearGradient id="paint7_linear_269_1509" x1="39.4941" y1="60.9573" x2="35.9903" y2="60.9937" gradientUnits="userSpaceOnUse">
            <stop stop-color="#570CD5"/>
            <stop offset="1" stop-color="#C67EFF"/>
        </linearGradient>
        <linearGradient id="paint8_linear_269_1509" x1="39.2985" y1="67.2071" x2="35.9887" y2="67.2405" gradientUnits="userSpaceOnUse">
            <stop stop-color="#570CD5"/>
            <stop offset="1" stop-color="#C67EFF"/>
        </linearGradient>
    </defs>
</svg>
