<svg width="21" height="21" viewBox="0 0 21 21" fill="none" xmlns="http://www.w3.org/2000/svg">
    <path d="M12.4375 9.79183C12.4375 9.46966 12.6987 9.2085 13.0208 9.2085H20.25C20.5722 9.2085 20.8333 9.46966 20.8333 9.79183V14.0522C20.8333 16.3707 18.9539 18.2502 16.6354 18.2502V18.2502C14.317 18.2502 12.4375 16.3707 12.4375 14.0522V9.79183Z" fill="url(#paint0_linear_695_1083)"/>
    <path d="M5.97852 8.70817C5.97852 8.27095 6.33296 7.9165 6.77018 7.9165H15.5202C15.9574 7.9165 16.3118 8.27095 16.3118 8.70817V15.0207C16.3118 17.8741 13.9987 20.1873 11.1452 20.1873V20.1873C8.29171 20.1873 5.97852 17.8741 5.97852 15.0207V8.70817Z" fill="url(#paint1_linear_695_1083)"/>
    <circle cx="17.6035" cy="5.979" r="1.9375" fill="#34439E"/>
    <circle cx="17.6035" cy="5.979" r="1.9375" fill="url(#paint2_linear_695_1083)"/>
    <ellipse cx="11.7904" cy="4.68734" rx="2.58333" ry="2.58333" fill="url(#paint3_linear_695_1083)"/>
    <mask id="mask0_695_1083" style="mask-type:alpha" maskUnits="userSpaceOnUse" x="5" y="0" width="12" height="21">
        <path d="M11.1452 7.27083C12.9286 7.27083 14.3743 5.82512 14.3743 4.04167C14.3743 2.25821 12.9286 0.8125 11.1452 0.8125C9.36173 0.8125 7.91602 2.25821 7.91602 4.04167C7.91602 5.82512 9.36173 7.27083 11.1452 7.27083Z" fill="url(#paint4_linear_695_1083)"/>
        <path d="M6.7702 7.91667C6.33297 7.91667 5.97852 8.27112 5.97852 8.70835V15.0208C5.97852 17.8743 8.29167 20.1875 11.1452 20.1875C13.9987 20.1875 16.3118 17.8743 16.3118 15.0208V8.70835C16.3118 8.27112 15.9574 7.91667 15.5202 7.91667H6.7702Z" fill="url(#paint5_linear_695_1083)"/>
    </mask>
    <g mask="url(#mask0_695_1083)">
        <path d="M4.6875 9.625C4.6875 7.96815 6.03065 6.625 7.6875 6.625H10.0833C11.7402 6.625 13.0833 7.96815 13.0833 9.625V15.25C13.0833 16.9069 11.7402 18.25 10.0833 18.25H4.6875V9.625Z" fill="black" fill-opacity="0.3"/>
    </g>
    <rect x="0.166016" y="5.3335" width="11.625" height="11.625" rx="2" fill="url(#paint6_linear_695_1083)"/>
    <path d="M8.5612 7.9165H3.39453V9.10144H5.32876V14.3748H6.62697V9.10144H8.5612V7.9165Z" fill="white"/>
    <defs>
        <linearGradient id="paint0_linear_695_1083" x1="12.4375" y1="9.68437" x2="20.9361" y2="15.2377" gradientUnits="userSpaceOnUse">
            <stop stop-color="#364088"/>
            <stop offset="1" stop-color="#6E7EE1"/>
        </linearGradient>
        <linearGradient id="paint1_linear_695_1083" x1="5.97852" y1="13.344" x2="16.3118" y2="13.344" gradientUnits="userSpaceOnUse">
            <stop stop-color="#515FC4"/>
            <stop offset="1" stop-color="#7084EA"/>
        </linearGradient>
        <linearGradient id="paint2_linear_695_1083" x1="15.666" y1="4.24545" x2="19.4095" y2="6.87974" gradientUnits="userSpaceOnUse">
            <stop stop-color="#364088"/>
            <stop offset="1" stop-color="#6E7EE1"/>
        </linearGradient>
        <linearGradient id="paint3_linear_695_1083" x1="9.94513" y1="2.8421" x2="13.2666" y2="6.7171" gradientUnits="userSpaceOnUse">
            <stop stop-color="#4858AE"/>
            <stop offset="1" stop-color="#4E60CE"/>
        </linearGradient>
        <linearGradient id="paint4_linear_695_1083" x1="8.83863" y1="1.73512" x2="12.9904" y2="6.57887" gradientUnits="userSpaceOnUse">
            <stop stop-color="#4858AE"/>
            <stop offset="1" stop-color="#4E60CE"/>
        </linearGradient>
        <linearGradient id="paint5_linear_695_1083" x1="8.83863" y1="1.73512" x2="12.9904" y2="6.57887" gradientUnits="userSpaceOnUse">
            <stop stop-color="#4858AE"/>
            <stop offset="1" stop-color="#4E60CE"/>
        </linearGradient>
        <linearGradient id="paint6_linear_695_1083" x1="0.166016" y1="11.146" x2="11.791" y2="11.146" gradientUnits="userSpaceOnUse">
            <stop stop-color="#2A3887"/>
            <stop offset="1" stop-color="#4C56B9"/>
        </linearGradient>
    </defs>
</svg>
