<svg width="40" height="40" viewBox="0 0 40 40" fill="none" xmlns="http://www.w3.org/2000/svg">
    <path d="M18.7352 0.0314693C18.16 0.10062 17.2376 0.342644 16.7219 0.550093C16.4342 0.66246 16.1764 0.757542 16.1565 0.757542C15.9978 0.757542 14.897 1.46633 14.3019 1.95037C12.6456 3.31608 11.9414 4.74229 11.9414 6.76492C11.9414 7.62065 12.0108 8.07012 12.2985 9.31482C12.4968 10.1446 12.6952 10.9831 12.7348 11.1732C12.8439 11.6486 12.9927 12.271 13.1811 12.9884C13.2704 13.3169 13.3795 13.749 13.4291 13.9392C13.4688 14.1294 13.5779 14.5788 13.6671 14.9332C13.7564 15.2876 13.9052 15.9532 13.9944 16.4027C14.0738 16.8521 14.163 17.267 14.1829 17.3275C14.1928 17.3794 14.9862 17.7511 15.9383 18.1573C17.7335 18.9266 18.4476 19.281 19.3997 19.912C19.9055 20.2405 19.9749 20.2664 20.1435 20.154C20.6394 19.8083 22.8908 18.7105 24.4182 18.0709L26.1241 17.3448V16.9386C26.1241 16.6101 26.5208 14.5356 26.9175 12.8155C26.9671 12.6254 27.0464 12.2537 27.1059 11.9944C27.1555 11.7351 27.2745 11.2424 27.3638 10.9139C27.4431 10.5768 27.5622 10.11 27.6018 9.87666C27.6911 9.4704 27.7407 9.23702 28.0184 8.15656C28.2167 7.43049 28.1572 5.90055 27.9192 5.12262C27.1555 2.68509 25.2017 1.00821 22.1569 0.1957C21.6312 0.0487576 19.4096 -0.0549679 18.7352 0.0314693ZM23.357 9.58277C23.833 9.72107 24.2099 10.0582 24.3785 10.4904C24.5074 10.8275 24.5074 10.9139 24.3686 11.2683C24.1603 11.8129 23.595 12.1672 22.9404 12.1672C22.5238 12.1672 22.3949 12.124 22.0676 11.8647C21.2147 11.1905 21.3635 10.11 22.3751 9.66921C22.871 9.46176 22.9106 9.45312 23.357 9.58277ZM18.0211 9.90259C18.4079 10.2224 18.5864 10.5422 18.5864 10.9139C18.5864 11.2683 18.4476 11.519 18.0509 11.8388C17.2773 12.4698 15.9978 12.124 15.7301 11.2164C15.5416 10.5595 16.0375 9.79887 16.7516 9.63463C17.1483 9.53955 17.7434 9.66921 18.0211 9.90259Z" fill="url(#paint0_linear_491_1438)"/>
    <path d="M8.70645 9.41852C8.65686 9.47903 8.61719 10.7151 8.61719 12.1672V14.8036L10.0355 14.8295C11.2058 14.8468 11.4537 14.8295 11.5033 14.7258C11.5331 14.6566 11.3843 13.9824 11.1661 13.2304C10.7099 11.6572 10.3925 10.5595 10.2437 10.0063C10.1842 9.7902 10.1148 9.54818 10.085 9.46174C10.0454 9.34073 9.92636 9.3148 9.42054 9.3148C9.02382 9.3148 8.75604 9.35802 8.70645 9.41852Z" fill="url(#paint1_linear_491_1438)"/>
    <path d="M29.8925 9.6606C29.6842 10.3435 29.1387 12.3056 28.9999 12.902C28.9503 13.0922 28.8412 13.5416 28.7519 13.896C28.6627 14.2504 28.5833 14.6048 28.5734 14.674C28.5536 14.7863 28.7817 14.8036 29.9718 14.8295L31.3802 14.8555V12.0895V9.33214L30.6859 9.34078L29.9917 9.34942L29.8925 9.6606Z" fill="url(#paint2_linear_491_1438)"/>
    <path d="M24.2888 20.2923C22.9399 20.8887 21.7993 21.4246 20.8869 21.8828L20.0736 22.2977L18.8438 21.6839C17.3462 20.9406 15.68 20.1886 15.2436 20.0503C14.8568 19.9379 14.8469 19.9811 15.0551 20.5603C15.2733 21.1653 15.3824 21.5456 15.7692 22.9719C16.2354 24.6747 16.4337 25.3057 16.5131 25.3057C16.5924 25.3057 18.8835 24.2166 19.6273 23.8189C20.0042 23.6201 20.1232 23.6201 20.4902 23.8449C20.7381 24.0005 23.5945 25.3057 23.6838 25.3057C23.7036 25.3057 23.773 25.1241 23.8325 24.8908C23.9912 24.3549 24.1102 23.9572 24.2491 23.5337C24.3086 23.3435 24.3879 23.0497 24.4375 22.8854C24.6061 22.2371 24.9433 21.0962 25.0921 20.664C25.3698 19.8601 25.3103 19.8342 24.2888 20.2923Z" fill="url(#paint3_linear_491_1438)"/>
    <path d="M26.936 20.8801C26.7872 21.295 26.6186 21.8136 26.5195 22.1939C26.4699 22.3582 26.3608 22.7126 26.2814 22.9719C26.2021 23.2312 26.0136 23.8362 25.8748 24.3116C25.7359 24.787 25.5773 25.2884 25.5277 25.4353C25.4086 25.7984 25.1409 26.6714 25.0318 27.0344C24.9921 27.1986 24.8334 27.7173 24.6946 28.184C24.5557 28.6421 24.3276 29.3855 24.1987 29.8263C24.0697 30.2585 23.8813 30.8549 23.792 31.1402C23.554 31.8749 23.4846 32.0823 23.2565 32.9121C23.1374 33.3184 23.0085 33.7592 22.9589 33.9062C22.9093 34.0445 22.7903 34.4334 22.701 34.7705C22.6118 35.099 22.4928 35.4534 22.4531 35.5485C22.4134 35.6435 22.1853 36.4042 21.9572 37.234C21.5605 38.6775 21.4514 39.0405 21.2629 39.5937C21.134 39.9568 21.3324 39.9654 22.106 39.6024C22.4928 39.4295 24.0995 38.7121 25.6764 38.0119C27.2633 37.3204 29.5345 36.3005 30.7346 35.7646C33.0653 34.7187 35.1679 33.8024 36.2886 33.3357C38.0342 32.6182 38.9764 31.8403 39.631 30.6129C39.8988 30.1029 39.9483 29.8955 39.988 29.1694C40.0376 28.21 39.9384 27.7605 39.4822 26.948C38.9962 26.0663 38.1135 25.3575 36.844 24.8303C36.2688 24.5882 34.2356 23.7239 32.3314 22.9027C30.4172 22.0729 28.5626 21.2777 28.2055 21.1308C27.8485 20.9838 27.4418 20.7937 27.303 20.7072L27.0451 20.5603L26.936 20.8801Z" fill="url(#paint4_linear_491_1438)"/>
    <path d="M12.3769 20.8974C12.0595 21.0357 11.1272 21.4247 10.304 21.7618C9.49076 22.0989 8.47913 22.5224 8.07249 22.7039C7.66586 22.8854 6.66415 23.3263 5.84096 23.6807C5.02769 24.0437 3.99622 24.4932 3.54991 24.6833C1.61591 25.5218 0.842315 26.1873 0.316664 27.4666C-0.377592 29.1521 0.0687154 30.6994 1.6655 32.091C2.30025 32.6356 2.63746 32.8603 3.26229 33.1196C3.69868 33.3011 4.39294 33.595 4.79957 33.7765C7.06086 34.7619 15.2432 38.3663 16.9292 39.1183C18.0202 39.6024 18.9227 40 18.9426 40C19.012 40 18.9822 39.7148 18.883 39.4468C18.8335 39.2999 18.6946 38.8677 18.5855 38.4874C18.1094 36.9228 17.7028 35.609 17.5441 35.1163C17.4549 34.8311 17.2763 34.2433 17.1474 33.8197C17.0185 33.3876 16.84 32.8084 16.7507 32.5232C16.6614 32.2379 16.5523 31.849 16.5027 31.6588C16.4532 31.4687 16.3738 31.1748 16.3143 31.0105C16.2548 30.8463 16.1457 30.4919 16.0664 30.2326C15.987 29.9733 15.7986 29.3855 15.6498 28.936C15.5109 28.4866 15.3523 27.9766 15.3126 27.8124C15.1638 27.2332 14.5291 25.1674 13.9737 23.4473C13.2596 21.2431 13.2298 21.1567 13.1604 20.9147C13.1306 20.811 13.0711 20.7072 13.0414 20.6813C13.0017 20.664 12.7042 20.7591 12.3769 20.8974Z" fill="url(#paint5_linear_491_1438)"/>
    <path d="M19.8047 26.317C19.2096 26.4121 18.9617 27.3456 19.4378 27.7346C20.0427 28.2273 21.0246 27.8383 21.0048 27.1122C20.985 26.5677 20.4593 26.2133 19.8047 26.317Z" fill="url(#paint6_linear_491_1438)"/>
    <path d="M19.5089 29.7658C19.2312 29.956 19.1816 30.0424 19.1816 30.3536C19.1816 30.8549 19.4792 31.0969 20.0941 31.0969C21.0363 31.0969 21.4033 30.3363 20.7189 29.809C20.2825 29.4805 19.9354 29.4633 19.5089 29.7658Z" fill="url(#paint7_linear_491_1438)"/>
    <path d="M19.7073 32.8257C19.4693 32.9122 19.1816 33.3271 19.1816 33.5777C19.1816 33.6642 19.2907 33.8457 19.4197 33.9926C19.618 34.2087 19.7271 34.252 20.104 34.252C20.709 34.252 20.9669 34.0445 20.9669 33.5518C20.9669 33.2493 20.9173 33.1456 20.6594 32.964C20.342 32.7307 20.0842 32.6961 19.7073 32.8257Z" fill="url(#paint8_linear_491_1438)"/>
    <defs>
        <linearGradient id="paint0_linear_491_1438" x1="28.0811" y1="14.354" x2="12.0657" y2="14.4687" gradientUnits="userSpaceOnUse">
            <stop stop-color="white"/>
            <stop offset="1" stop-color="white"/>
        </linearGradient>
        <linearGradient id="paint1_linear_491_1438" x1="11.497" y1="13.2349" x2="8.63927" y2="13.2483" gradientUnits="userSpaceOnUse">
            <stop stop-color="white"/>
            <stop offset="1" stop-color="white"/>
        </linearGradient>
        <linearGradient id="paint2_linear_491_1438" x1="31.3704" y1="13.2542" x2="28.5937" y2="13.2668" gradientUnits="userSpaceOnUse">
            <stop stop-color="white"/>
            <stop offset="1" stop-color="white"/>
        </linearGradient>
        <linearGradient id="paint3_linear_491_1438" x1="25.1986" y1="23.7655" x2="15.0016" y2="23.9426" gradientUnits="userSpaceOnUse">
            <stop stop-color="white"/>
            <stop offset="1" stop-color="white"/>
        </linearGradient>
        <linearGradient id="paint4_linear_491_1438" x1="39.9339" y1="34.2722" x2="21.371" y2="34.4336" gradientUnits="userSpaceOnUse">
            <stop stop-color="white"/>
            <stop offset="1" stop-color="white"/>
        </linearGradient>
        <linearGradient id="paint5_linear_491_1438" x1="18.914" y1="34.3988" x2="0.146103" y2="34.5637" gradientUnits="userSpaceOnUse">
            <stop stop-color="white"/>
            <stop offset="1" stop-color="white"/>
        </linearGradient>
        <linearGradient id="paint6_linear_491_1438" x1="20.9987" y1="27.4748" x2="19.2015" y2="27.4924" gradientUnits="userSpaceOnUse">
            <stop stop-color="white"/>
            <stop offset="1" stop-color="white"/>
        </linearGradient>
        <linearGradient id="paint7_linear_491_1438" x1="21.065" y1="30.6485" x2="19.1963" y2="30.669" gradientUnits="userSpaceOnUse">
            <stop stop-color="white"/>
            <stop offset="1" stop-color="white"/>
        </linearGradient>
        <linearGradient id="paint8_linear_491_1438" x1="20.9606" y1="33.8168" x2="19.1954" y2="33.8356" gradientUnits="userSpaceOnUse">
            <stop stop-color="white"/>
            <stop offset="1" stop-color="white"/>
        </linearGradient>
    </defs>
</svg>
